<?xml version="1.0" encoding="UTF-8"?>
<svg width="12px" height="12px" viewBox="0 0 12 12" version="1.1" xmlns="http://www.w3.org/2000/svg" xmlns:xlink="http://www.w3.org/1999/xlink">
    <!-- Generator: Sketch 51.3 (57544) - http://www.bohemiancoding.com/sketch -->
    <title>i-icon copy 2</title>
    <desc>Created with Sketch.</desc>
    <defs></defs>
    <g id="1280" stroke="none" stroke-width="1" fill="none" fill-rule="evenodd" opacity="0.5">
        <g id="1280-4" transform="translate(-148.000000, -521.000000)" fill="#999999" fill-rule="nonzero">
            <g id="i-icon" transform="translate(148.000000, 521.000000)">
                <path d="M6,0 C2.685,0 0,2.685 0,6 C0,9.315 2.685,12 6,12 C9.315,12 12,9.315 12,6 C12,2.685 9.315,0 6,0 Z M6,2.0025 C6.555,2.0025 6.9975,2.4525 6.9975,3 C6.9975,3.5475 6.5475,3.9975 6,3.9975 C5.4525,3.9975 5.0025,3.5475 5.0025,3 C5.0025,2.4525 5.445,2.0025 6,2.0025 Z M8.0025,9 L3.9975,9 L3.9975,8.0025 L5.235,8.0025 L5.235,6 L3.9975,6 L3.9975,5.0025 L6.9975,5.0025 L6.9975,8.0025 L7.995,8.0025 L7.995,9 L8.0025,9 Z" id="Shape"></path>
            </g>
        </g>
    </g>
</svg>