<svg xmlns="http://www.w3.org/2000/svg" id="icon-support-unlimited" viewBox="0 0 70 32">
    <path fill="#61bb46" style="fill: var(--color1, #61bb46)" d="M54.56 0c-4.224 0-8.213 1.667-11.073 4.569l-8.287 7.442-0.015-0.015-4.444 3.974 0.029 0.030-7.905 7.114c-1.877 1.89-4.371 2.932-7.025 2.932-5.485 0-9.944-4.51-9.944-10.046s4.459-10.046 9.944-10.046c2.655 0 5.148 1.042 7.157 3.066l3.329 2.992 4.429-3.974-3.711-3.334c-2.992-3.021-6.967-4.688-11.205-4.688-8.741-0.015-15.84 7.159-15.84 15.985s7.099 16 15.84 16c4.224 0 8.199-1.667 11.073-4.554l8.287-7.457 0.015 0.015 4.429-3.989-0.015-0.015 7.905-7.099c1.877-1.905 4.371-2.947 7.025-2.947 5.485 0 9.944 4.51 9.944 10.046s-4.459 10.046-9.944 10.046c-2.655 0-5.148-1.042-7.157-3.051l-3.329-2.992-4.429 3.989 3.711 3.334c2.992 3.021 6.967 4.673 11.191 4.673 8.756 0 15.855-7.174 15.855-16s-7.099-16-15.84-16z">
    </path>
</svg>
