<svg xmlns="http://www.w3.org/2000/svg" id="icon-support-none" viewBox="0 0 32 32"><path fill="#600000" style="fill: var(--color3, #600000)" d="M18.799 16.023l12.576-12.594c0.78-0.781 0.78-2.042 0-2.823s-2.039-0.781-2.819 0l-12.576 12.594-12.576-12.614c-0.78-0.781-2.039-0.781-2.819 0s-0.78 2.042 0 2.823l12.576 12.594-12.576 12.594c-0.78 0.781-0.78 2.042 0 2.823 0.4 0.4 0.9 0.581 1.42 0.581s1.020-0.2 1.42-0.581l12.576-12.594 12.576 12.594c0.4 0.4 0.9 0.581 1.42 0.581s1.020-0.2 1.42-0.581c0.78-0.781 0.78-2.042 0-2.823l-12.616-12.574z">
</path>
</svg>
